G04 DipTrace 2.4.0.2*
%INBottomMask.gbr*%
%MOIN*%
%ADD18C,0.063*%
%ADD27C,0.125*%
%ADD36C,0.058*%
%ADD38C,0.058*%
%ADD40C,0.068*%
%ADD42C,0.068*%
%ADD45R,0.071X0.071*%
%ADD47C,0.071*%
%ADD48C,0.0671*%
%ADD50R,0.0671X0.0671*%
%FSLAX44Y44*%
G04*
G70*
G90*
G75*
G01*
%LNBotMask*%
%LPD*%
D50*
X8940Y12440D3*
D48*
Y11440D3*
Y10440D3*
Y9440D3*
X11940D3*
Y10440D3*
Y11440D3*
Y12440D3*
D50*
Y18440D3*
D48*
Y17440D3*
D47*
X13440Y11440D3*
D45*
Y12440D3*
X14440Y14440D3*
D47*
Y15440D3*
X12440Y14440D3*
D45*
Y15440D3*
D50*
X14940Y6440D3*
D48*
Y10416D3*
D27*
X5440Y4940D3*
Y17940D3*
X14440D3*
Y4940D3*
D50*
X10940Y13940D3*
D48*
X9940D3*
X10940Y14940D3*
X9940D3*
X10940Y15940D3*
X9940D3*
D50*
X9440Y6440D3*
D48*
X8440D3*
D18*
X6940Y11440D3*
X6440Y10940D3*
G36*
X5940Y11029D2*
X5529Y11440D1*
X5940Y11851D1*
X6351Y11440D1*
X5940Y11029D1*
G37*
D50*
X9440Y17940D3*
D48*
X8440D3*
D50*
X5940Y6940D3*
D48*
Y7940D3*
Y8940D3*
D50*
X14940Y11440D3*
D48*
Y12440D3*
D42*
X11940Y4440D3*
D40*
Y8440D3*
D42*
X4940Y13940D3*
D40*
X8940D3*
D42*
X10940Y4440D3*
D40*
Y8440D3*
D38*
X13440Y6940D3*
D36*
Y9940D3*
D50*
X7940Y16440D3*
D48*
Y15440D3*
D50*
X5940Y16440D3*
D48*
Y15440D3*
M02*
