G04 DipTrace 2.4.0.2*
%INBottom.gbr*%
%MOIN*%
%ADD14C,0.013*%
%ADD15C,0.025*%
%ADD16R,0.0591X0.0591*%
%ADD17C,0.0591*%
%ADD18C,0.063*%
%ADD19R,0.063X0.063*%
%ADD20C,0.0551*%
%ADD21C,0.06*%
%ADD22C,0.06*%
%ADD23C,0.05*%
%ADD24C,0.05*%
%ADD25C,0.04*%
%FSLAX44Y44*%
G04*
G70*
G90*
G75*
G01*
%LNBottom*%
%LPD*%
X8940Y9440D2*
D14*
Y10440D1*
X12440Y14440D2*
X11930Y14950D1*
Y16170D1*
X11670Y16430D1*
X10430D1*
X9940Y15940D1*
X11670Y16430D2*
X11940Y16700D1*
Y17440D1*
X5940Y8940D2*
Y11440D1*
X8940Y10440D2*
X8430Y10950D1*
Y15950D1*
X7940Y16440D1*
X11940Y9440D2*
X10940Y10440D1*
Y12940D1*
X10445Y13435D1*
Y14435D1*
X9940Y14940D1*
X13440Y11440D2*
X12690Y10690D1*
Y6135D1*
X12430Y5875D1*
X7940D1*
Y11440D1*
X6940D1*
Y14440D1*
X5940Y15440D1*
X6440Y10940D2*
X6940Y10440D1*
Y5440D1*
X7445Y4935D1*
X11445D1*
X11940Y4440D1*
Y18440D2*
X13690Y16690D1*
X15170D1*
X15430Y16430D1*
Y12930D1*
X14940Y12440D1*
X9835Y10440D2*
Y12483D1*
X8940Y13378D1*
Y13940D1*
Y11440D2*
X9440Y10940D1*
Y6440D1*
X11940Y8440D2*
Y8935D1*
X12170D1*
X12430Y9195D1*
Y10950D1*
X11940Y11440D1*
X11430Y11950D1*
Y14450D1*
X10940Y14940D1*
X14940Y6440D2*
X15430Y6930D1*
Y10950D1*
X14940Y11440D1*
X13440Y12440D2*
X14440Y13440D1*
Y14440D1*
X9940Y13940D2*
X9440Y14440D1*
Y16670D1*
X9180Y16930D1*
X7356D1*
X6866Y16440D1*
X5940D1*
X9180Y16930D2*
X9440Y17190D1*
Y17940D1*
X14440Y14440D2*
X13440D1*
X12440Y15440D1*
D25*
X9835Y10440D3*
X6401Y18566D2*
D15*
X11354D1*
X12526D2*
X13479D1*
X6526Y18318D2*
X8003D1*
X10026D2*
X11354D1*
X12553D2*
X13354D1*
X6584Y18069D2*
X7870D1*
X10026D2*
X11354D1*
X12803D2*
X13296D1*
X6584Y17820D2*
X7866D1*
X10026D2*
X12069D1*
X13053D2*
X13296D1*
X6529Y17572D2*
X7991D1*
X10026D2*
X12315D1*
X6408Y17323D2*
X9081D1*
X9795D2*
X12565D1*
X4590Y17074D2*
X4694D1*
X6186D2*
X7011D1*
X9776D2*
X12815D1*
X4590Y16825D2*
X5253D1*
X6526D2*
X6761D1*
X9756D2*
X13061D1*
X4590Y16577D2*
X5354D1*
X7494D2*
X9042D1*
X9795D2*
X13311D1*
X4590Y16328D2*
X5354D1*
X7244D2*
X9085D1*
X9795D2*
X10511D1*
X11369D2*
X15042D1*
X4590Y16079D2*
X5354D1*
X6526D2*
X9085D1*
X9795D2*
X10374D1*
X11506D2*
X15077D1*
X4590Y15831D2*
X5515D1*
X6365D2*
X7515D1*
X8365D2*
X9085D1*
X9795D2*
X10366D1*
X11514D2*
X11835D1*
X13045D2*
X15077D1*
X4590Y15582D2*
X5374D1*
X6506D2*
X7374D1*
X8506D2*
X9085D1*
X9795D2*
X10483D1*
X11397D2*
X11835D1*
X13045D2*
X15077D1*
X4590Y15333D2*
X5366D1*
X6537D2*
X7366D1*
X8514D2*
X9085D1*
X10365D2*
X10515D1*
X11365D2*
X11835D1*
X13045D2*
X15077D1*
X4590Y15085D2*
X5483D1*
X6787D2*
X7483D1*
X8397D2*
X9085D1*
X11506D2*
X11835D1*
X13287D2*
X15077D1*
X4590Y14836D2*
X6054D1*
X7037D2*
X9085D1*
X11537D2*
X12554D1*
X13537D2*
X13835D1*
X4590Y14587D2*
X6300D1*
X7260D2*
X9085D1*
X11756D2*
X12800D1*
X5365Y14339D2*
X6550D1*
X7295D2*
X8515D1*
X11783D2*
X13050D1*
X5510Y14090D2*
X6585D1*
X7295D2*
X8370D1*
X11783D2*
X13835D1*
X5522Y13841D2*
X6585D1*
X7295D2*
X8358D1*
X11783D2*
X14085D1*
X14795D2*
X15077D1*
X5412Y13593D2*
X6585D1*
X7295D2*
X8468D1*
X11783D2*
X14085D1*
X14795D2*
X15077D1*
X4590Y13344D2*
X6585D1*
X7295D2*
X8589D1*
X9467D2*
X10104D1*
X11783D2*
X13851D1*
X14779D2*
X15077D1*
X4590Y13095D2*
X6585D1*
X7295D2*
X8729D1*
X9713D2*
X10292D1*
X11783D2*
X13604D1*
X14588D2*
X15077D1*
X4590Y12846D2*
X6585D1*
X7295D2*
X8354D1*
X9963D2*
X10542D1*
X12350D2*
X12835D1*
X14338D2*
X14530D1*
X4590Y12598D2*
X6585D1*
X7295D2*
X8354D1*
X10170D2*
X10585D1*
X12502D2*
X12835D1*
X14088D2*
X14378D1*
X4590Y12349D2*
X6585D1*
X7295D2*
X8354D1*
X10190D2*
X10585D1*
X12518D2*
X12835D1*
X14045D2*
X14362D1*
X4590Y12100D2*
X6585D1*
X7295D2*
X8354D1*
X10190D2*
X10585D1*
X12412D2*
X12835D1*
X14045D2*
X14468D1*
X4590Y11852D2*
X6565D1*
X7315D2*
X8534D1*
X10190D2*
X10585D1*
X12346D2*
X13007D1*
X13873D2*
X14354D1*
X4590Y11603D2*
X6401D1*
X8252D2*
X8378D1*
X10190D2*
X10585D1*
X12502D2*
X12858D1*
X14022D2*
X14354D1*
X4590Y11354D2*
X6069D1*
X10190D2*
X10585D1*
X12518D2*
X12843D1*
X14037D2*
X14354D1*
X4590Y11106D2*
X5901D1*
X7389D2*
X7585D1*
X8295D2*
X8464D1*
X10190D2*
X10585D1*
X11295D2*
X11464D1*
X13940D2*
X14354D1*
X4590Y10857D2*
X5882D1*
X7014D2*
X7585D1*
X8295D2*
X9030D1*
X10190D2*
X10585D1*
X11295D2*
X11542D1*
X13350D2*
X14569D1*
X4590Y10608D2*
X5987D1*
X7248D2*
X7585D1*
X8295D2*
X9085D1*
X10295D2*
X10585D1*
X11295D2*
X11380D1*
X13100D2*
X14390D1*
X4590Y10360D2*
X6530D1*
X7295D2*
X7585D1*
X8295D2*
X9085D1*
X10319D2*
X10597D1*
X13764D2*
X14358D1*
X4590Y10111D2*
X6585D1*
X7295D2*
X7585D1*
X8295D2*
X9085D1*
X10190D2*
X10776D1*
X13951D2*
X14444D1*
X4590Y9862D2*
X6585D1*
X7295D2*
X7585D1*
X8295D2*
X9085D1*
X9795D2*
X11026D1*
X13975D2*
X14835D1*
X4590Y9614D2*
X6585D1*
X7295D2*
X7585D1*
X8295D2*
X9085D1*
X9795D2*
X11276D1*
X13861D2*
X15077D1*
X4590Y9365D2*
X6585D1*
X7295D2*
X7585D1*
X8295D2*
X9085D1*
X9795D2*
X11358D1*
X13045D2*
X15077D1*
X4590Y9116D2*
X6585D1*
X7295D2*
X7585D1*
X8295D2*
X9085D1*
X9795D2*
X11456D1*
X13045D2*
X15077D1*
X4590Y8867D2*
X6585D1*
X7295D2*
X7585D1*
X8295D2*
X9085D1*
X9795D2*
X11546D1*
X13045D2*
X15077D1*
X4590Y8619D2*
X6585D1*
X7295D2*
X7585D1*
X8295D2*
X9085D1*
X9795D2*
X11378D1*
X13045D2*
X15077D1*
X4590Y8370D2*
X5558D1*
X6322D2*
X6585D1*
X7295D2*
X7585D1*
X8295D2*
X9085D1*
X9795D2*
X11354D1*
X13045D2*
X15077D1*
X4590Y8121D2*
X5386D1*
X6494D2*
X6586D1*
X7295D2*
X7585D1*
X8295D2*
X9085D1*
X9795D2*
X11448D1*
X13045D2*
X15077D1*
X4590Y7873D2*
X5358D1*
X7295D2*
X7585D1*
X8295D2*
X9085D1*
X9795D2*
X12335D1*
X13045D2*
X15077D1*
X4590Y7624D2*
X5452D1*
X6428D2*
X6585D1*
X7295D2*
X7585D1*
X8295D2*
X9085D1*
X9795D2*
X12335D1*
X13045D2*
X15077D1*
X4590Y7375D2*
X5354D1*
X7295D2*
X7585D1*
X8295D2*
X9085D1*
X9795D2*
X12335D1*
X13045D2*
X13141D1*
X13740D2*
X15077D1*
X4590Y7127D2*
X5354D1*
X7295D2*
X7585D1*
X8295D2*
X9085D1*
X9795D2*
X12335D1*
X13944D2*
X15077D1*
X4590Y6878D2*
X5354D1*
X7295D2*
X7585D1*
X10026D2*
X12335D1*
X13975D2*
X14354D1*
X4590Y6629D2*
X5354D1*
X7295D2*
X7585D1*
X10026D2*
X12335D1*
X13877D2*
X14354D1*
X4590Y6381D2*
X5354D1*
X7295D2*
X7585D1*
X10026D2*
X12335D1*
X13045D2*
X14354D1*
X4590Y6132D2*
X6585D1*
X7295D2*
X7585D1*
X13045D2*
X14354D1*
X4590Y5883D2*
X4800D1*
X6080D2*
X6585D1*
X7295D2*
X7585D1*
X12932D2*
X13800D1*
X6350Y5635D2*
X6585D1*
X7295D2*
X7690D1*
X12682D2*
X13530D1*
X6498Y5386D2*
X6587D1*
X7486D2*
X13382D1*
X6572Y5137D2*
X6753D1*
X11733D2*
X13308D1*
X6592Y4888D2*
X6999D1*
X12307D2*
X13288D1*
X6549Y4640D2*
X7272D1*
X12494D2*
X13331D1*
X11383Y10465D2*
X11391Y10554D1*
X11430Y10673D1*
X11494Y10780D1*
X11581Y10870D1*
X11688Y10940D1*
X11596Y10997D1*
X11507Y11084D1*
X11439Y11189D1*
X11396Y11306D1*
X11380Y11430D1*
X11389Y11527D1*
X11267Y11646D1*
X11270Y10577D1*
X11381Y10466D1*
X12500Y18817D2*
Y18348D1*
X13458Y17389D1*
X13389Y17536D1*
X13350Y17655D1*
X13326Y17777D1*
X13314Y17902D1*
X13317Y18026D1*
X13334Y18150D1*
X13364Y18272D1*
X13407Y18389D1*
X13463Y18500D1*
X13531Y18605D1*
X13610Y18702D1*
X13734Y18815D1*
X12499D1*
X6559Y4815D2*
X6539Y4692D1*
X6503Y4568D1*
X7190Y4565D1*
X10389D1*
X10320Y4605D1*
X7445D1*
X7323Y4628D1*
X7212Y4702D1*
X6707Y5207D1*
X6637Y5309D1*
X6610Y5440D1*
Y10303D1*
X6511Y10403D1*
X6414Y10400D1*
X6291Y10420D1*
X6176Y10468D1*
X6075Y10541D1*
X5993Y10636D1*
X5935Y10746D1*
X5904Y10867D1*
X5902Y10992D1*
X5928Y11114D1*
X5981Y11226D1*
X6059Y11324D1*
X6157Y11401D1*
X6270Y11453D1*
X6404Y11478D1*
X6428Y11614D1*
X6481Y11726D1*
X6559Y11824D1*
X6611Y11865D1*
X6610Y14303D1*
X6024Y14889D1*
X5945Y14880D1*
X5821Y14893D1*
X5703Y14932D1*
X5596Y14997D1*
X5507Y15084D1*
X5439Y15189D1*
X5396Y15306D1*
X5380Y15430D1*
X5391Y15554D1*
X5430Y15673D1*
X5494Y15780D1*
X5597Y15881D1*
X5380Y15880D1*
Y16813D1*
X5211Y16837D1*
X5090Y16869D1*
X4974Y16915D1*
X4863Y16973D1*
X4759Y17043D1*
X4664Y17123D1*
X4567Y17230D1*
X4565Y14366D1*
X4665Y14433D1*
X4780Y14482D1*
X4903Y14504D1*
X5027Y14498D1*
X5148Y14466D1*
X5258Y14407D1*
X5353Y14326D1*
X5427Y14226D1*
X5478Y14112D1*
X5505Y13940D1*
X5491Y13816D1*
X5451Y13698D1*
X5385Y13592D1*
X5298Y13503D1*
X5193Y13435D1*
X5076Y13392D1*
X4952Y13375D1*
X4828Y13386D1*
X4709Y13424D1*
X4602Y13487D1*
X4565Y13522D1*
Y5647D1*
X4700Y5789D1*
X4798Y5866D1*
X4905Y5931D1*
X5018Y5984D1*
X5136Y6025D1*
X5258Y6052D1*
X5382Y6065D1*
X5507Y6064D1*
X5631Y6050D1*
X5753Y6022D1*
X5871Y5981D1*
X5984Y5926D1*
X6090Y5860D1*
X6187Y5783D1*
X6276Y5695D1*
X6355Y5597D1*
X6422Y5492D1*
X6477Y5380D1*
X6519Y5262D1*
X6548Y5141D1*
X6566Y4940D1*
X6559Y4815D1*
X5505Y7500D2*
X5595D1*
X5507Y7584D1*
X5439Y7689D1*
X5396Y7806D1*
X5380Y7930D1*
X5391Y8054D1*
X5430Y8173D1*
X5494Y8280D1*
X5581Y8370D1*
X5685Y8439D1*
X5801Y8483D1*
X5925Y8500D1*
X6049Y8490D1*
X6168Y8452D1*
X6276Y8389D1*
X6367Y8303D1*
X6436Y8200D1*
X6482Y8084D1*
X6500Y7940D1*
X6486Y7816D1*
X6445Y7698D1*
X6379Y7592D1*
X6288Y7502D1*
X6500Y7500D1*
Y6380D1*
X5380D1*
Y7500D1*
X5505D1*
X12361Y8067D2*
X12298Y8003D1*
X12193Y7935D1*
X12076Y7892D1*
X11952Y7875D1*
X11828Y7886D1*
X11709Y7924D1*
X11602Y7987D1*
X11511Y8073D1*
X11441Y8176D1*
X11395Y8292D1*
X11376Y8415D1*
X11384Y8539D1*
X11419Y8659D1*
X11480Y8768D1*
X11563Y8861D1*
X11611Y8895D1*
X11613Y8987D1*
X11507Y9084D1*
X11439Y9189D1*
X11396Y9306D1*
X11380Y9430D1*
X11389Y9527D1*
X10707Y10207D1*
X10637Y10309D1*
X10610Y10440D1*
Y12803D1*
X10212Y13202D1*
X10141Y13308D1*
X10117Y13402D1*
X9945Y13380D1*
X9821Y13393D1*
X9703Y13432D1*
X9596Y13497D1*
X9507Y13584D1*
X9441Y13686D1*
X9385Y13592D1*
X9288Y13496D1*
X10068Y12716D1*
X10138Y12613D1*
X10165Y12483D1*
Y10768D1*
X10209Y10717D1*
X10269Y10608D1*
X10298Y10487D1*
X10300Y10440D1*
X10283Y10317D1*
X10234Y10202D1*
X10157Y10104D1*
X10056Y10031D1*
X9940Y9987D1*
X9815Y9975D1*
X9773Y9983D1*
X9770Y9315D1*
Y6999D1*
X10000Y7000D1*
Y6207D1*
X11940Y6205D1*
X12295D1*
X12360Y6272D1*
Y8061D1*
X8486Y15316D2*
X8445Y15198D1*
X8379Y15092D1*
X8292Y15004D1*
X8186Y14937D1*
X8069Y14895D1*
X7945Y14880D1*
X7821Y14893D1*
X7703Y14932D1*
X7596Y14997D1*
X7507Y15084D1*
X7439Y15189D1*
X7396Y15306D1*
X7380Y15430D1*
X7391Y15554D1*
X7430Y15673D1*
X7494Y15780D1*
X7581Y15870D1*
X7685Y15939D1*
X7801Y15983D1*
X7925Y16000D1*
X8049Y15990D1*
X8168Y15952D1*
X8276Y15889D1*
X8367Y15803D1*
X8436Y15700D1*
X8482Y15584D1*
X8500Y15440D1*
X8486Y15316D1*
X6500Y16114D2*
Y15880D1*
X6285D1*
X6367Y15803D1*
X6436Y15700D1*
X6482Y15584D1*
X6500Y15440D1*
X6491Y15359D1*
X7173Y14673D1*
X7243Y14571D1*
X7270Y14440D1*
X7268Y11866D1*
X7341Y11802D1*
X7366Y11767D1*
X7940Y11770D1*
X8062Y11747D1*
X8167Y11680D1*
X8239Y11579D1*
X8270Y11440D1*
X8268Y6970D1*
X8425Y7000D1*
X8549Y6990D1*
X8668Y6952D1*
X8776Y6889D1*
X8882Y6781D1*
X8880Y7000D1*
X9110D1*
Y10803D1*
X9026Y10890D1*
X8945Y10880D1*
X8821Y10893D1*
X8703Y10932D1*
X8596Y10997D1*
X8507Y11084D1*
X8439Y11189D1*
X8396Y11306D1*
X8380Y11430D1*
X8391Y11554D1*
X8430Y11673D1*
X8494Y11780D1*
X8597Y11881D1*
X8380Y11880D1*
Y13000D1*
X8852D1*
X8707Y13144D1*
X8637Y13247D1*
X8610Y13378D1*
Y13483D1*
X8511Y13573D1*
X8441Y13676D1*
X8395Y13792D1*
X8376Y13915D1*
X8384Y14039D1*
X8419Y14159D1*
X8480Y14268D1*
X8563Y14361D1*
X8665Y14433D1*
X8780Y14482D1*
X8903Y14504D1*
X9027Y14498D1*
X9114Y14475D1*
X9110Y15190D1*
Y16538D1*
X9043Y16600D1*
X7496D1*
X7099Y16207D1*
X6997Y16137D1*
X6866Y16110D1*
X6503D1*
X13368Y16545D2*
X12035Y17880D1*
X11380D1*
Y18813D1*
X6147Y18815D1*
X6276Y18695D1*
X6355Y18597D1*
X6422Y18492D1*
X6477Y18380D1*
X6519Y18262D1*
X6548Y18141D1*
X6566Y17940D1*
X6559Y17815D1*
X6539Y17692D1*
X6504Y17572D1*
X6457Y17456D1*
X6397Y17347D1*
X6326Y17244D1*
X6243Y17150D1*
X6151Y17066D1*
X6059Y17000D1*
X6500D1*
Y16770D1*
X6733D1*
X7123Y17164D1*
X7226Y17233D1*
X7356Y17260D1*
X9040D1*
X9000Y17380D1*
X8880D1*
X8879Y17592D1*
X8792Y17504D1*
X8686Y17437D1*
X8569Y17395D1*
X8445Y17380D1*
X8321Y17393D1*
X8203Y17432D1*
X8096Y17497D1*
X8007Y17584D1*
X7939Y17689D1*
X7896Y17806D1*
X7880Y17930D1*
X7891Y18054D1*
X7930Y18173D1*
X7994Y18280D1*
X8081Y18370D1*
X8185Y18439D1*
X8301Y18483D1*
X8425Y18500D1*
X8549Y18490D1*
X8668Y18452D1*
X8776Y18389D1*
X8882Y18281D1*
X8880Y18500D1*
X10000D1*
Y17380D1*
X9770D1*
Y17190D1*
X9747Y17068D1*
X9673Y16957D1*
X9648Y16932D1*
X9743Y16801D1*
X9770Y16670D1*
Y15471D1*
X9925Y15500D1*
X10049Y15490D1*
X10168Y15452D1*
X10276Y15389D1*
X10367Y15303D1*
X10441Y15189D1*
X10494Y15280D1*
X10581Y15370D1*
X10688Y15440D1*
X10596Y15497D1*
X10507Y15584D1*
X10439Y15689D1*
X10396Y15806D1*
X10380Y15930D1*
X10391Y16054D1*
X10430Y16173D1*
X10494Y16280D1*
X10581Y16370D1*
X10685Y16439D1*
X10801Y16483D1*
X10925Y16500D1*
X11049Y16490D1*
X11168Y16452D1*
X11276Y16389D1*
X11367Y16303D1*
X11436Y16200D1*
X11482Y16084D1*
X11500Y15940D1*
X11486Y15816D1*
X11445Y15698D1*
X11379Y15592D1*
X11292Y15504D1*
X11190Y15439D1*
X11276Y15389D1*
X11367Y15303D1*
X11436Y15200D1*
X11482Y15084D1*
X11500Y14940D1*
X11491Y14859D1*
X11664Y14683D1*
X11733Y14580D1*
X11760Y14450D1*
X11761Y12968D1*
X11801Y12983D1*
X11925Y13000D1*
X12049Y12990D1*
X12168Y12952D1*
X12276Y12889D1*
X12367Y12803D1*
X12436Y12700D1*
X12482Y12584D1*
X12500Y12440D1*
X12486Y12316D1*
X12445Y12198D1*
X12379Y12092D1*
X12292Y12004D1*
X12191Y11938D1*
X12276Y11889D1*
X12367Y11803D1*
X12436Y11700D1*
X12482Y11584D1*
X12500Y11440D1*
X12491Y11359D1*
X12666Y11180D1*
X12722Y11189D1*
X12868Y11335D1*
X12862Y11493D1*
X12887Y11615D1*
X12937Y11729D1*
X13011Y11830D1*
X13043Y11859D1*
X12860Y11860D1*
Y13020D1*
X13551D1*
X14110Y13577D1*
Y13858D1*
X13860Y13860D1*
Y14114D1*
X13440Y14110D1*
X13318Y14133D1*
X13207Y14207D1*
X12552Y14861D1*
X11860Y14860D1*
Y16020D1*
X13020D1*
Y15329D1*
X13577Y14770D1*
X13858D1*
X13860Y15020D1*
X15020D1*
Y13860D1*
X14766D1*
X14770Y13440D1*
X14747Y13318D1*
X14673Y13207D1*
X14019Y12552D1*
X14020Y11860D1*
X13836D1*
X13891Y11804D1*
X13959Y11699D1*
X14002Y11583D1*
X14020Y11440D1*
X14007Y11316D1*
X13967Y11198D1*
X13903Y11091D1*
X13817Y11000D1*
X13715Y10929D1*
X13599Y10882D1*
X13476Y10861D1*
X13340Y10870D1*
X13019Y10552D1*
X13020Y10241D1*
X13060Y10288D1*
X13155Y10369D1*
X13267Y10425D1*
X13388Y10452D1*
X13513Y10450D1*
X13633Y10417D1*
X13742Y10357D1*
X13834Y10272D1*
X13902Y10168D1*
X13943Y10050D1*
X13955Y9940D1*
X13940Y9816D1*
X13896Y9700D1*
X13824Y9597D1*
X13731Y9515D1*
X13620Y9458D1*
X13499Y9428D1*
X13374Y9429D1*
X13253Y9460D1*
X13143Y9519D1*
X13051Y9603D1*
X13018Y9651D1*
X13020Y7241D1*
X13060Y7288D1*
X13155Y7369D1*
X13267Y7425D1*
X13388Y7452D1*
X13513Y7450D1*
X13633Y7417D1*
X13742Y7357D1*
X13834Y7272D1*
X13902Y7168D1*
X13943Y7050D1*
X13955Y6940D1*
X13940Y6816D1*
X13896Y6700D1*
X13824Y6597D1*
X13731Y6515D1*
X13620Y6458D1*
X13499Y6428D1*
X13374Y6429D1*
X13253Y6460D1*
X13143Y6519D1*
X13051Y6603D1*
X13018Y6651D1*
X13020Y6135D1*
X12997Y6013D1*
X12924Y5902D1*
X12664Y5642D1*
X12561Y5572D1*
X12430Y5545D1*
X7940D1*
X7818Y5568D1*
X7713Y5635D1*
X7641Y5736D1*
X7610Y5875D1*
Y11113D1*
X7366Y11110D1*
X7265Y11008D1*
X7158Y10945D1*
X7039Y10908D1*
X6980Y10905D1*
X7027Y10820D1*
X7173Y10673D1*
X7243Y10571D1*
X7270Y10440D1*
Y5577D1*
X7579Y5267D1*
X10195Y5265D1*
X11445D1*
X11567Y5242D1*
X11678Y5168D1*
X11847Y5000D1*
X12027Y4998D1*
X12148Y4966D1*
X12258Y4907D1*
X12353Y4826D1*
X12427Y4726D1*
X12478Y4612D1*
X12488Y4563D1*
X13381Y4565D1*
X13350Y4655D1*
X13326Y4777D1*
X13314Y4902D1*
X13317Y5026D1*
X13334Y5150D1*
X13364Y5272D1*
X13407Y5389D1*
X13463Y5500D1*
X13531Y5605D1*
X13610Y5702D1*
X13700Y5789D1*
X13798Y5866D1*
X13905Y5931D1*
X14018Y5984D1*
X14136Y6025D1*
X14258Y6052D1*
X14379Y6064D1*
X14380Y7000D1*
X15032D1*
X15102Y7068D1*
X15100Y9879D1*
X14945Y9856D1*
X14821Y9869D1*
X14703Y9909D1*
X14596Y9974D1*
X14507Y10061D1*
X14439Y10165D1*
X14396Y10283D1*
X14380Y10406D1*
X14391Y10530D1*
X14430Y10649D1*
X14494Y10756D1*
X14581Y10846D1*
X14629Y10878D1*
X14380Y10880D1*
Y12000D1*
X14595D1*
X14507Y12084D1*
X14439Y12189D1*
X14396Y12306D1*
X14380Y12430D1*
X14391Y12554D1*
X14430Y12673D1*
X14494Y12780D1*
X14581Y12870D1*
X14685Y12939D1*
X14801Y12983D1*
X14925Y13000D1*
X15022Y12992D1*
X15102Y13068D1*
X15100Y16294D1*
X15034Y16360D1*
X13690D1*
X13568Y16384D1*
X13456Y16457D1*
X13368Y16545D1*
D16*
X8940Y12440D3*
D17*
Y11440D3*
Y10440D3*
Y9440D3*
X11940D3*
Y10440D3*
Y11440D3*
Y12440D3*
D16*
Y18440D3*
D17*
Y17440D3*
D18*
X13440Y11440D3*
D19*
Y12440D3*
X14440Y14440D3*
D18*
Y15440D3*
X12440Y14440D3*
D19*
Y15440D3*
D16*
X14940Y6440D3*
D17*
Y10416D3*
D16*
X10940Y13940D3*
D17*
X9940D3*
X10940Y14940D3*
X9940D3*
X10940Y15940D3*
X9940D3*
D16*
X9440Y6440D3*
D17*
X8440D3*
D20*
X6940Y11440D3*
X6440Y10940D3*
G36*
X5940Y11086D2*
X5586Y11440D1*
X5940Y11794D1*
X6294Y11440D1*
X5940Y11086D1*
G37*
D16*
X9440Y17940D3*
D17*
X8440D3*
D16*
X5940Y6940D3*
D17*
Y7940D3*
Y8940D3*
D16*
X14940Y11440D3*
D17*
Y12440D3*
D21*
X11940Y4440D3*
D22*
Y8440D3*
D21*
X4940Y13940D3*
D22*
X8940D3*
D21*
X10940Y4440D3*
D22*
Y8440D3*
D23*
X13440Y6940D3*
D24*
Y9940D3*
D16*
X7940Y16440D3*
D17*
Y15440D3*
D16*
X5940Y16440D3*
D17*
Y15440D3*
M02*
