M48
INCH
T01C0.019
T02C0.022
T03C0.0315
T04C0.0354
T05C0.038
T06C0.0394
T07C0.125
%
T01
X+009835Y+010440
T02
X+013440Y+006940
X+013440Y+009940
T03
X+006940Y+011440
X+006440Y+010940
X+005940Y+011440
T04
X+008940Y+012440
X+008940Y+011440
X+008940Y+010440
X+008940Y+009440
X+011940Y+009440
X+011940Y+010440
X+011940Y+011440
X+011940Y+012440
X+010940Y+013940
X+010940Y+014940
X+010940Y+015940
X+009940Y+015940
X+009940Y+014940
X+009940Y+013940
X+007940Y+015440
X+007940Y+016440
X+008440Y+017940
X+009440Y+017940
X+011940Y+017440
X+011940Y+018440
X+014440Y+015440
X+014440Y+014440
X+014940Y+012440
X+014940Y+011440
X+014940Y+010416
X+014940Y+006440
X+009440Y+006440
X+008440Y+006440
X+005940Y+006940
X+005940Y+007940
X+005940Y+008940
X+005940Y+015440
X+005940Y+016440
T05
X+011940Y+004440
X+010940Y+004440
X+010940Y+008440
X+011940Y+008440
X+008940Y+013940
X+004940Y+013940
T06
X+013440Y+011440
X+013440Y+012440
X+012440Y+014440
X+012440Y+015440
T07
X+005440Y+004940
X+014440Y+004940
X+014440Y+017940
X+005440Y+017940
T00
M30
