G04 DipTrace 2.4.0.2*
%INTop.gbr*%
%MOIN*%
%ADD14C,0.013*%
%ADD15C,0.025*%
%ADD16R,0.0591X0.0591*%
%ADD17C,0.0591*%
%ADD18C,0.063*%
%ADD19R,0.063X0.063*%
%ADD20C,0.0551*%
%ADD21C,0.06*%
%ADD22C,0.06*%
%ADD23C,0.05*%
%ADD24C,0.05*%
%ADD25C,0.04*%
%FSLAX44Y44*%
G04*
G70*
G90*
G75*
G01*
%LNTop*%
%LPD*%
X12440Y14440D2*
D14*
X13440Y15440D1*
X14440D1*
X5940Y8940D2*
X6440Y9440D1*
X8940D1*
X9940Y15940D2*
X9440Y16440D1*
X7940D1*
X8940Y9440D2*
X9940D1*
X10940Y8440D1*
X11940Y9440D2*
X11435Y8935D1*
Y8200D1*
X11175Y7940D1*
X5940D1*
X13440Y11440D2*
Y10676D1*
X13700Y10416D1*
X14940D1*
X11940Y18440D2*
X8940D1*
X8440Y17940D1*
X4940Y13940D2*
X6440D1*
X7940Y15440D1*
X8440Y6440D2*
X10440Y4440D1*
X10940D1*
X13440Y9940D2*
X9690D1*
X9430Y10200D1*
Y11950D1*
X8940Y12440D1*
X9835Y10440D2*
X11940D1*
X14940Y11440D2*
X13950Y12430D1*
Y12440D1*
X13440D1*
X14940Y6440D2*
X14440Y6940D1*
X13440D1*
X11940Y12440D2*
X11440D1*
X9940Y13940D1*
X13440Y12440D2*
X12430D1*
X11940D1*
X13440Y6940D2*
X5940D1*
D25*
X9835Y10440D3*
X6401Y18566D2*
D15*
X8573D1*
X12526D2*
X13479D1*
X6526Y18318D2*
X8003D1*
X12526D2*
X13354D1*
X6584Y18069D2*
X7870D1*
X10026D2*
X11354D1*
X12526D2*
X13296D1*
X6584Y17820D2*
X7866D1*
X10026D2*
X13296D1*
X6529Y17572D2*
X7991D1*
X10026D2*
X13351D1*
X6408Y17323D2*
X13472D1*
X4590Y17074D2*
X4694D1*
X6186D2*
X13694D1*
X15186D2*
X15292D1*
X4590Y16825D2*
X5253D1*
X6526D2*
X14253D1*
X14627D2*
X15292D1*
X4590Y16577D2*
X5354D1*
X6526D2*
X15292D1*
X4590Y16328D2*
X5354D1*
X6526D2*
X10511D1*
X11369D2*
X15292D1*
X4590Y16079D2*
X5354D1*
X6526D2*
X10374D1*
X11506D2*
X15292D1*
X4590Y15831D2*
X5515D1*
X6365D2*
X7515D1*
X8365D2*
X10366D1*
X11514D2*
X11835D1*
X13045D2*
X15292D1*
X4590Y15582D2*
X5374D1*
X6506D2*
X7374D1*
X8506D2*
X10483D1*
X11397D2*
X11835D1*
X13045D2*
X15292D1*
X4590Y15333D2*
X5366D1*
X6514D2*
X7343D1*
X8514D2*
X9515D1*
X10365D2*
X10515D1*
X11365D2*
X11835D1*
X13045D2*
X15292D1*
X4590Y15085D2*
X5483D1*
X6397D2*
X7093D1*
X8397D2*
X9374D1*
X11506D2*
X11835D1*
X13045D2*
X15292D1*
X4590Y14836D2*
X6843D1*
X7826D2*
X9366D1*
X11514D2*
X13835D1*
X15045D2*
X15292D1*
X4590Y14587D2*
X6597D1*
X7580D2*
X9479D1*
X11401D2*
X13835D1*
X15045D2*
X15292D1*
X5365Y14339D2*
X6347D1*
X7330D2*
X8515D1*
X9365D2*
X9522D1*
X11526D2*
X13835D1*
X15045D2*
X15292D1*
X7080Y14090D2*
X8370D1*
X11526D2*
X13835D1*
X15045D2*
X15292D1*
X6834Y13841D2*
X8358D1*
X11526D2*
X15292D1*
X5412Y13593D2*
X8468D1*
X11526D2*
X15292D1*
X4590Y13344D2*
X10046D1*
X11029D2*
X15292D1*
X4590Y13095D2*
X10292D1*
X11276D2*
X15292D1*
X4590Y12846D2*
X8354D1*
X9526D2*
X10542D1*
X12350D2*
X12835D1*
X14045D2*
X14530D1*
X4590Y12598D2*
X8354D1*
X9526D2*
X10792D1*
X14276D2*
X14377D1*
X4590Y12349D2*
X8354D1*
X9526D2*
X11038D1*
X4590Y12100D2*
X8354D1*
X9748D2*
X11468D1*
X12412D2*
X12835D1*
X4590Y11852D2*
X6565D1*
X7315D2*
X8534D1*
X9783D2*
X11534D1*
X12346D2*
X13007D1*
X13873D2*
X14037D1*
X4590Y11603D2*
X6401D1*
X7479D2*
X8378D1*
X9783D2*
X11378D1*
X12502D2*
X12858D1*
X14022D2*
X14284D1*
X4590Y11354D2*
X6069D1*
X7498D2*
X8362D1*
X9783D2*
X11362D1*
X12518D2*
X12843D1*
X14037D2*
X14354D1*
X4590Y11106D2*
X5901D1*
X7389D2*
X8464D1*
X9783D2*
X11464D1*
X12416D2*
X12940D1*
X13940D2*
X14354D1*
X4590Y10857D2*
X5882D1*
X6998D2*
X9077D1*
X10065D2*
X11542D1*
X12338D2*
X13085D1*
X13795D2*
X14569D1*
X4590Y10608D2*
X5987D1*
X6893D2*
X9077D1*
X12498D2*
X13093D1*
X4590Y10360D2*
X9077D1*
X12518D2*
X13116D1*
X4590Y10111D2*
X9089D1*
X4590Y9862D2*
X9276D1*
X13975D2*
X14835D1*
X15048D2*
X15292D1*
X4590Y9614D2*
X9616D1*
X13861D2*
X15292D1*
X4590Y9365D2*
X11358D1*
X12522D2*
X15292D1*
X4590Y9116D2*
X11136D1*
X12424D2*
X15292D1*
X4590Y8867D2*
X11081D1*
X12334D2*
X15292D1*
X4590Y8619D2*
X11081D1*
X12502D2*
X15292D1*
X4590Y8370D2*
X5558D1*
X6322D2*
X11081D1*
X12526D2*
X15292D1*
X4590Y8121D2*
X5386D1*
X12432D2*
X15292D1*
X4590Y7873D2*
X5358D1*
X11600D2*
X15292D1*
X4590Y7624D2*
X5452D1*
X11295D2*
X15292D1*
X4590Y7375D2*
X5354D1*
X6526D2*
X13140D1*
X13740D2*
X15292D1*
X4590Y7127D2*
X5354D1*
X14744D2*
X15292D1*
X4590Y6878D2*
X5354D1*
X4590Y6629D2*
X5354D1*
X4590Y6381D2*
X5354D1*
X6526D2*
X7858D1*
X10026D2*
X14354D1*
X4590Y6132D2*
X7948D1*
X10026D2*
X14354D1*
X4590Y5883D2*
X4800D1*
X6080D2*
X8354D1*
X10026D2*
X13800D1*
X6350Y5635D2*
X8753D1*
X9736D2*
X13530D1*
X6498Y5386D2*
X9003D1*
X9986D2*
X13382D1*
X6572Y5137D2*
X9253D1*
X10233D2*
X13308D1*
X6592Y4888D2*
X9499D1*
X10483D2*
X10574D1*
X11307D2*
X11573D1*
X12307D2*
X13288D1*
X6549Y4640D2*
X9749D1*
X12494D2*
X13331D1*
X12486Y9316D2*
X12445Y9198D1*
X12379Y9092D1*
X12292Y9004D1*
X12196Y8943D1*
X12258Y8907D1*
X12353Y8826D1*
X12427Y8726D1*
X12478Y8612D1*
X12505Y8440D1*
X12491Y8316D1*
X12451Y8198D1*
X12385Y8092D1*
X12298Y8003D1*
X12193Y7935D1*
X12076Y7892D1*
X11952Y7875D1*
X11828Y7886D1*
X11709Y7924D1*
X11659Y7954D1*
X11408Y7707D1*
X11306Y7637D1*
X11175Y7610D1*
X6390D1*
X6288Y7502D1*
X6500Y7500D1*
Y7270D1*
X13045D1*
X13155Y7369D1*
X13267Y7425D1*
X13388Y7452D1*
X13513Y7450D1*
X13633Y7417D1*
X13742Y7357D1*
X13836Y7269D1*
X14440Y7270D1*
X14562Y7247D1*
X14673Y7173D1*
X14847Y6999D1*
X15313Y7000D1*
X15315Y9999D1*
X15186Y9913D1*
X15069Y9871D1*
X14945Y9856D1*
X14821Y9869D1*
X14703Y9909D1*
X14596Y9974D1*
X14492Y10084D1*
X13936Y10086D1*
X13955Y9940D1*
X13940Y9816D1*
X13896Y9700D1*
X13824Y9597D1*
X13731Y9515D1*
X13620Y9458D1*
X13499Y9428D1*
X13374Y9429D1*
X13253Y9460D1*
X13143Y9519D1*
X13044Y9612D1*
X12475Y9610D1*
X12500Y9440D1*
X12486Y9316D1*
X11389Y9356D2*
X11380Y9430D1*
X11391Y9554D1*
X11410Y9610D1*
X9690D1*
X9568Y9633D1*
X9457Y9707D1*
X9197Y9967D1*
X9127Y10069D1*
X9100Y10200D1*
X9102Y10907D1*
X8945Y10880D1*
X8821Y10893D1*
X8703Y10932D1*
X8596Y10997D1*
X8507Y11084D1*
X8439Y11189D1*
X8396Y11306D1*
X8380Y11430D1*
X8391Y11554D1*
X8430Y11673D1*
X8494Y11780D1*
X8597Y11881D1*
X8380Y11880D1*
Y13000D1*
X9500D1*
Y12348D1*
X9664Y12183D1*
X9733Y12080D1*
X9760Y11950D1*
Y10899D1*
X9894Y10901D1*
X10014Y10869D1*
X10122Y10806D1*
X10157Y10770D1*
X11487D1*
X11581Y10870D1*
X11688Y10940D1*
X11596Y10997D1*
X11507Y11084D1*
X11439Y11189D1*
X11396Y11306D1*
X11380Y11430D1*
X11391Y11554D1*
X11430Y11673D1*
X11494Y11780D1*
X11581Y11870D1*
X11688Y11940D1*
X11596Y11997D1*
X11492Y12107D1*
X11318Y12133D1*
X11207Y12207D1*
X10027Y13386D1*
X9945Y13380D1*
X9821Y13393D1*
X9703Y13432D1*
X9596Y13497D1*
X9507Y13584D1*
X9441Y13686D1*
X9385Y13592D1*
X9298Y13503D1*
X9193Y13435D1*
X9076Y13392D1*
X8952Y13375D1*
X8828Y13386D1*
X8709Y13424D1*
X8602Y13487D1*
X8511Y13573D1*
X8441Y13676D1*
X8395Y13792D1*
X8376Y13915D1*
X8384Y14039D1*
X8419Y14159D1*
X8480Y14268D1*
X8563Y14361D1*
X8665Y14433D1*
X8780Y14482D1*
X8903Y14504D1*
X9027Y14498D1*
X9148Y14466D1*
X9258Y14407D1*
X9353Y14326D1*
X9442Y14194D1*
X9494Y14280D1*
X9581Y14370D1*
X9688Y14440D1*
X9596Y14497D1*
X9507Y14584D1*
X9439Y14689D1*
X9396Y14806D1*
X9380Y14930D1*
X9391Y15054D1*
X9430Y15173D1*
X9494Y15280D1*
X9581Y15370D1*
X9685Y15439D1*
X9801Y15483D1*
X9925Y15500D1*
X10049Y15490D1*
X10168Y15452D1*
X10276Y15389D1*
X10367Y15303D1*
X10441Y15189D1*
X10494Y15280D1*
X10581Y15370D1*
X10688Y15440D1*
X10596Y15497D1*
X10507Y15584D1*
X10439Y15689D1*
X10396Y15806D1*
X10380Y15930D1*
X10391Y16054D1*
X10430Y16173D1*
X10494Y16280D1*
X10581Y16370D1*
X10685Y16439D1*
X10801Y16483D1*
X10925Y16500D1*
X11049Y16490D1*
X11168Y16452D1*
X11276Y16389D1*
X11367Y16303D1*
X11436Y16200D1*
X11482Y16084D1*
X11500Y15940D1*
X11486Y15816D1*
X11445Y15698D1*
X11379Y15592D1*
X11292Y15504D1*
X11190Y15439D1*
X11276Y15389D1*
X11367Y15303D1*
X11436Y15200D1*
X11482Y15084D1*
X11500Y14940D1*
X11486Y14816D1*
X11445Y14698D1*
X11379Y14592D1*
X11288Y14502D1*
X11500Y14500D1*
Y13380D1*
X10969Y13378D1*
X11530Y12817D1*
X11581Y12870D1*
X11685Y12939D1*
X11801Y12983D1*
X11925Y13000D1*
X12049Y12990D1*
X12168Y12952D1*
X12276Y12889D1*
X12367Y12803D1*
X12391Y12768D1*
X12864Y12770D1*
X12860Y13020D1*
X14020D1*
Y12766D1*
X14165Y12689D1*
X14379Y12467D1*
X14391Y12554D1*
X14430Y12673D1*
X14494Y12780D1*
X14581Y12870D1*
X14685Y12939D1*
X14801Y12983D1*
X14925Y13000D1*
X15049Y12990D1*
X15168Y12952D1*
X15276Y12889D1*
X15312Y12854D1*
X15315Y14565D1*
Y17233D1*
X15243Y17150D1*
X15151Y17066D1*
X15050Y16993D1*
X14941Y16931D1*
X14826Y16882D1*
X14707Y16846D1*
X14584Y16823D1*
X14459Y16814D1*
X14334Y16819D1*
X14211Y16837D1*
X14090Y16869D1*
X13974Y16915D1*
X13863Y16973D1*
X13759Y17043D1*
X13664Y17123D1*
X13579Y17214D1*
X13503Y17314D1*
X13440Y17422D1*
X13389Y17536D1*
X13350Y17655D1*
X13326Y17777D1*
X13314Y17902D1*
X13317Y18026D1*
X13334Y18150D1*
X13364Y18272D1*
X13407Y18389D1*
X13463Y18500D1*
X13531Y18605D1*
X13610Y18702D1*
X13734Y18815D1*
X12499D1*
X12500Y17880D1*
X11380D1*
Y18110D1*
X9999D1*
X10000Y17380D1*
X8880D1*
X8879Y17592D1*
X8792Y17504D1*
X8686Y17437D1*
X8569Y17395D1*
X8445Y17380D1*
X8321Y17393D1*
X8203Y17432D1*
X8096Y17497D1*
X8007Y17584D1*
X7939Y17689D1*
X7896Y17806D1*
X7880Y17930D1*
X7891Y18054D1*
X7930Y18173D1*
X7994Y18280D1*
X8081Y18370D1*
X8185Y18439D1*
X8301Y18483D1*
X8425Y18500D1*
X8522Y18492D1*
X8707Y18673D1*
X8809Y18743D1*
X8940Y18770D1*
X11381D1*
X11315Y18815D1*
X6147D1*
X6276Y18695D1*
X6355Y18597D1*
X6422Y18492D1*
X6477Y18380D1*
X6519Y18262D1*
X6548Y18141D1*
X6566Y17940D1*
X6559Y17815D1*
X6539Y17692D1*
X6504Y17572D1*
X6457Y17456D1*
X6397Y17347D1*
X6326Y17244D1*
X6243Y17150D1*
X6151Y17066D1*
X6059Y17000D1*
X6500D1*
Y15880D1*
X6285D1*
X6367Y15803D1*
X6436Y15700D1*
X6482Y15584D1*
X6500Y15440D1*
X6486Y15316D1*
X6445Y15198D1*
X6379Y15092D1*
X6292Y15004D1*
X6186Y14937D1*
X6069Y14895D1*
X5945Y14880D1*
X5821Y14893D1*
X5703Y14932D1*
X5596Y14997D1*
X5507Y15084D1*
X5439Y15189D1*
X5396Y15306D1*
X5380Y15430D1*
X5391Y15554D1*
X5430Y15673D1*
X5494Y15780D1*
X5597Y15881D1*
X5380Y15880D1*
Y16813D1*
X5211Y16837D1*
X5090Y16869D1*
X4974Y16915D1*
X4863Y16973D1*
X4759Y17043D1*
X4664Y17123D1*
X4567Y17230D1*
X4565Y14366D1*
X4665Y14433D1*
X4780Y14482D1*
X4903Y14504D1*
X5027Y14498D1*
X5148Y14466D1*
X5258Y14407D1*
X5353Y14326D1*
X5392Y14273D1*
X6190Y14270D1*
X6303D1*
X7386Y15353D1*
X7380Y15430D1*
X7391Y15554D1*
X7430Y15673D1*
X7494Y15780D1*
X7581Y15870D1*
X7685Y15939D1*
X7801Y15983D1*
X7925Y16000D1*
X8049Y15990D1*
X8168Y15952D1*
X8276Y15889D1*
X8367Y15803D1*
X8436Y15700D1*
X8482Y15584D1*
X8500Y15440D1*
X8486Y15316D1*
X8445Y15198D1*
X8379Y15092D1*
X8292Y15004D1*
X8186Y14937D1*
X8069Y14895D1*
X7945Y14880D1*
X7856Y14889D1*
X6673Y13707D1*
X6571Y13637D1*
X6440Y13610D1*
X5397D1*
X5298Y13503D1*
X5193Y13435D1*
X5076Y13392D1*
X4952Y13375D1*
X4828Y13386D1*
X4709Y13424D1*
X4602Y13487D1*
X4565Y13522D1*
Y5647D1*
X4700Y5789D1*
X4798Y5866D1*
X4905Y5931D1*
X5018Y5984D1*
X5136Y6025D1*
X5258Y6052D1*
X5382Y6065D1*
X5507Y6064D1*
X5631Y6050D1*
X5753Y6022D1*
X5871Y5981D1*
X5984Y5926D1*
X6090Y5860D1*
X6187Y5783D1*
X6276Y5695D1*
X6355Y5597D1*
X6422Y5492D1*
X6477Y5380D1*
X6519Y5262D1*
X6548Y5141D1*
X6566Y4940D1*
X6559Y4815D1*
X6539Y4692D1*
X6503Y4568D1*
X7190Y4565D1*
X9850D1*
X8525Y5889D1*
X8445Y5880D1*
X8321Y5893D1*
X8203Y5932D1*
X8096Y5997D1*
X8007Y6084D1*
X7939Y6189D1*
X7896Y6306D1*
X7880Y6430D1*
X7891Y6554D1*
X7910Y6610D1*
X6499D1*
X6500Y6380D1*
X5380D1*
Y7500D1*
X5595D1*
X5507Y7584D1*
X5439Y7689D1*
X5396Y7806D1*
X5380Y7930D1*
X5391Y8054D1*
X5430Y8173D1*
X5494Y8280D1*
X5581Y8370D1*
X5685Y8439D1*
X5801Y8483D1*
X5925Y8500D1*
X6049Y8490D1*
X6168Y8452D1*
X6276Y8389D1*
X6367Y8303D1*
X6391Y8268D1*
X8190Y8270D1*
X11038D1*
X11105Y8337D1*
Y8935D1*
X11128Y9057D1*
X11202Y9168D1*
X11290Y9257D1*
X12486Y10316D2*
X12470Y10268D1*
X13046Y10270D1*
X13155Y10369D1*
X13242Y10413D1*
X13207Y10443D1*
X13137Y10546D1*
X13110Y10676D1*
Y10962D1*
X13024Y11036D1*
X12947Y11134D1*
X12893Y11247D1*
X12865Y11368D1*
X12862Y11493D1*
X12887Y11615D1*
X12937Y11729D1*
X13011Y11830D1*
X13043Y11859D1*
X12860Y11860D1*
Y12114D1*
X12430Y12110D1*
X12395D1*
X12292Y12004D1*
X12190Y11939D1*
X12276Y11889D1*
X12367Y11803D1*
X12436Y11700D1*
X12482Y11584D1*
X12500Y11440D1*
X12486Y11316D1*
X12445Y11198D1*
X12379Y11092D1*
X12292Y11004D1*
X12190Y10939D1*
X12276Y10889D1*
X12367Y10803D1*
X12436Y10700D1*
X12482Y10584D1*
X12500Y10440D1*
X12486Y10316D1*
X13985Y15020D2*
X15020D1*
Y13860D1*
X13860D1*
Y15020D1*
X13985D1*
X11985Y16020D2*
X13020D1*
Y14860D1*
X11860D1*
Y16020D1*
X11985D1*
X14380Y6063D2*
Y6532D1*
X14301Y6613D1*
X13835Y6610D1*
X13731Y6515D1*
X13620Y6458D1*
X13499Y6428D1*
X13374Y6429D1*
X13253Y6460D1*
X13143Y6519D1*
X13044Y6612D1*
X10565Y6610D1*
X9999D1*
X10000Y5880D1*
X9469Y5878D1*
X10527Y4820D1*
X10563Y4861D1*
X10665Y4933D1*
X10780Y4982D1*
X10903Y5004D1*
X11027Y4998D1*
X11148Y4966D1*
X11258Y4907D1*
X11353Y4826D1*
X11438Y4701D1*
X11480Y4768D1*
X11563Y4861D1*
X11665Y4933D1*
X11780Y4982D1*
X11903Y5004D1*
X12027Y4998D1*
X12148Y4966D1*
X12258Y4907D1*
X12353Y4826D1*
X12427Y4726D1*
X12478Y4612D1*
X12488Y4563D1*
X13381Y4565D1*
X13350Y4655D1*
X13326Y4777D1*
X13314Y4902D1*
X13317Y5026D1*
X13334Y5150D1*
X13364Y5272D1*
X13407Y5389D1*
X13463Y5500D1*
X13531Y5605D1*
X13610Y5702D1*
X13700Y5789D1*
X13798Y5866D1*
X13905Y5931D1*
X14018Y5984D1*
X14136Y6025D1*
X14258Y6052D1*
X14379Y6064D1*
X14488Y10746D2*
X14581Y10846D1*
X14629Y10878D1*
X14380Y10880D1*
Y11532D1*
X14020Y11894D1*
Y11860D1*
X13833Y11862D1*
X13891Y11804D1*
X13959Y11699D1*
X14002Y11583D1*
X14020Y11440D1*
X14007Y11316D1*
X13967Y11198D1*
X13903Y11091D1*
X13817Y11000D1*
X13769Y10967D1*
X13770Y10811D1*
X13837Y10746D1*
X14485D1*
X7466Y11316D2*
X7424Y11199D1*
X7356Y11094D1*
X7265Y11008D1*
X7158Y10945D1*
X7039Y10908D1*
X6980Y10905D1*
X6966Y10816D1*
X6924Y10699D1*
X6856Y10594D1*
X6765Y10508D1*
X6658Y10445D1*
X6539Y10408D1*
X6414Y10400D1*
X6291Y10420D1*
X6176Y10468D1*
X6075Y10541D1*
X5993Y10636D1*
X5935Y10746D1*
X5904Y10867D1*
X5902Y10992D1*
X5928Y11114D1*
X5981Y11226D1*
X6059Y11324D1*
X6157Y11401D1*
X6270Y11453D1*
X6404Y11478D1*
X6428Y11614D1*
X6481Y11726D1*
X6559Y11824D1*
X6657Y11901D1*
X6770Y11953D1*
X6893Y11979D1*
X7017Y11975D1*
X7138Y11943D1*
X7248Y11884D1*
X7341Y11802D1*
X7414Y11700D1*
X7461Y11585D1*
X7481Y11440D1*
X7466Y11316D1*
D16*
X8940Y12440D3*
D17*
Y11440D3*
Y10440D3*
Y9440D3*
X11940D3*
Y10440D3*
Y11440D3*
Y12440D3*
D16*
Y18440D3*
D17*
Y17440D3*
D18*
X13440Y11440D3*
D19*
Y12440D3*
X14440Y14440D3*
D18*
Y15440D3*
X12440Y14440D3*
D19*
Y15440D3*
D16*
X14940Y6440D3*
D17*
Y10416D3*
D16*
X10940Y13940D3*
D17*
X9940D3*
X10940Y14940D3*
X9940D3*
X10940Y15940D3*
X9940D3*
D16*
X9440Y6440D3*
D17*
X8440D3*
D20*
X6940Y11440D3*
X6440Y10940D3*
G36*
X5940Y11086D2*
X5586Y11440D1*
X5940Y11794D1*
X6294Y11440D1*
X5940Y11086D1*
G37*
D16*
X9440Y17940D3*
D17*
X8440D3*
D16*
X5940Y6940D3*
D17*
Y7940D3*
Y8940D3*
D16*
X14940Y11440D3*
D17*
Y12440D3*
D21*
X11940Y4440D3*
D22*
Y8440D3*
D21*
X4940Y13940D3*
D22*
X8940D3*
D21*
X10940Y4440D3*
D22*
Y8440D3*
D23*
X13440Y6940D3*
D24*
Y9940D3*
D16*
X7940Y16440D3*
D17*
Y15440D3*
D16*
X5940Y16440D3*
D17*
Y15440D3*
M02*
