G04 DipTrace 2.4.0.2*
%INTopSilk.gbr*%
%MOIN*%
%ADD10C,0.0098*%
%ADD52C,0.0077*%
%ADD53C,0.0062*%
%FSLAX44Y44*%
G04*
G70*
G90*
G75*
G01*
%LNTopSilk*%
%LPD*%
X11464Y12909D2*
D10*
Y8971D1*
X9416D2*
X11464D1*
X9416Y12909D2*
Y8971D1*
Y12909D2*
X10204D1*
X11464D2*
X10676D1*
X10204D2*
G03X10676Y12909I236J0D01*
G01*
X11440Y16940D2*
X12440D1*
X11440Y18940D2*
Y16940D1*
Y18940D2*
X12440D1*
Y16940D1*
X12840Y12639D2*
Y11241D1*
X14040Y12639D2*
Y11241D1*
X12840D2*
G03X14040Y11241I600J-1D01*
G01*
Y12639D2*
G03X12840Y12639I-600J1D01*
G01*
X14558Y13641D2*
X14322D1*
X14440Y13523D2*
Y13759D1*
X13440Y14940D2*
G02X13440Y14940I1000J0D01*
G01*
X11840Y15639D2*
Y14241D1*
X13040Y15639D2*
Y14241D1*
X11840D2*
G03X13040Y14241I600J-1D01*
G01*
Y15639D2*
G03X11840Y15639I-600J1D01*
G01*
X15393Y7423D2*
X14487D1*
Y9433D1*
X15393Y7757D2*
X14487D1*
X15393Y9433D2*
X14487D1*
X15393Y7423D2*
Y9433D1*
X11440Y14523D2*
Y16440D1*
Y13440D2*
Y16440D1*
X9440Y13440D2*
Y16440D1*
X11440Y13440D2*
X9440D1*
X11440Y16440D2*
X9440D1*
G36*
X9635Y5612D2*
X8245D1*
Y5758D1*
X9635D1*
Y5612D1*
G37*
X10190Y5315D2*
D10*
X7690D1*
Y7565D1*
X10190D1*
Y5315D1*
G36*
X9940D2*
X7878D1*
Y5815D1*
X9940D1*
Y5315D1*
G37*
X5592Y12209D2*
D10*
X5395Y12406D1*
X5789D2*
X5592Y12603D1*
X5395Y12406D1*
X5301Y11440D2*
G02X5301Y11440I1139J0D01*
G01*
X7940Y18440D2*
Y17440D1*
X9940Y18440D2*
X7940D1*
X9940D2*
Y17440D1*
X7940D1*
X4940Y6440D2*
X7440D1*
Y9440D1*
X4940D1*
Y6440D1*
G36*
X6940Y6940D2*
X7440D1*
Y8940D1*
X6940D1*
Y6940D1*
G37*
X15440Y12940D2*
D10*
X14440D1*
X15440Y10940D2*
Y12940D1*
Y10940D2*
X14440D1*
Y12940D1*
X12440Y7438D2*
Y5442D1*
X11440D2*
X12440D1*
X11440Y7438D2*
Y5442D1*
Y7438D2*
X12440D1*
X7938Y13440D2*
X5942D1*
Y14440D2*
Y13440D1*
X7938Y14440D2*
X5942D1*
X7938D2*
Y13440D1*
X11440Y7438D2*
Y5442D1*
X10440D2*
X11440D1*
X10440Y7438D2*
Y5442D1*
Y7438D2*
X11440D1*
X13140Y7639D2*
X13740D1*
X13140Y9241D2*
Y7639D1*
Y9241D2*
X13740D1*
Y7639D1*
X7440Y14940D2*
X8440D1*
X7440Y16940D2*
Y14940D1*
Y16940D2*
X8440D1*
Y14940D1*
X5440D2*
X6440D1*
X5440Y16940D2*
Y14940D1*
Y16940D2*
X6440D1*
Y14940D1*
X8415Y8447D2*
D52*
X7912Y8256D1*
X8415Y8064D1*
X8247Y8136D2*
Y8375D1*
X7912Y8769D2*
X8415D1*
X7912Y8602D2*
Y8937D1*
Y9258D2*
X8415D1*
X7912Y9091D2*
Y9426D1*
Y9580D2*
X8415D1*
X7912Y10070D2*
X8415D1*
X7912Y9735D1*
X8415D1*
X7912Y10224D2*
X8152Y10415D1*
X8415D1*
X7912Y10607D2*
X8152Y10415D1*
X7913Y10880D2*
X7937Y10809D1*
X7984Y10785D1*
X8032D1*
X8080Y10809D1*
X8104Y10857D1*
X8128Y10952D1*
X8152Y11024D1*
X8200Y11072D1*
X8247Y11095D1*
X8319D1*
X8367Y11072D1*
X8391Y11048D1*
X8415Y10976D1*
Y10880D1*
X8391Y10809D1*
X8367Y10785D1*
X8319Y10761D1*
X8247D1*
X8200Y10785D1*
X8152Y10833D1*
X8128Y10904D1*
X8104Y11000D1*
X8080Y11048D1*
X8032Y11072D1*
X7984D1*
X7937Y11048D1*
X7913Y10976D1*
Y10880D1*
Y11537D2*
Y11298D1*
X8128Y11274D1*
X8104Y11298D1*
X8080Y11370D1*
Y11441D1*
X8104Y11513D1*
X8152Y11561D1*
X8224Y11585D1*
X8271D1*
X8343Y11561D1*
X8391Y11513D1*
X8415Y11441D1*
Y11370D1*
X8391Y11298D1*
X8367Y11274D1*
X8319Y11250D1*
X8498Y11739D2*
Y12193D1*
X8176Y12348D2*
Y12563D1*
X8152Y12635D1*
X8127Y12659D1*
X8080Y12683D1*
X8008D1*
X7961Y12659D1*
X7936Y12635D1*
X7912Y12563D1*
Y12348D1*
X8415D1*
X7912Y12837D2*
X8415D1*
Y13005D1*
X8391Y13076D1*
X8343Y13124D1*
X8295Y13148D1*
X8224Y13172D1*
X8104D1*
X8032Y13148D1*
X7984Y13124D1*
X7936Y13076D1*
X7912Y13005D1*
Y12837D1*
Y13326D2*
X8415D1*
X8176Y13481D2*
Y13696D1*
X8152Y13768D1*
X8127Y13792D1*
X8080Y13816D1*
X8008D1*
X7961Y13792D1*
X7936Y13768D1*
X7912Y13696D1*
Y13481D1*
X8415D1*
X10708Y17259D2*
X11210D1*
Y17475D1*
X11186Y17547D1*
X11162Y17570D1*
X11115Y17594D1*
X11043D1*
X10995Y17570D1*
X10971Y17547D1*
X10947Y17475D1*
X10923Y17547D1*
X10899Y17570D1*
X10851Y17594D1*
X10803D1*
X10756Y17570D1*
X10732Y17547D1*
X10708Y17475D1*
Y17259D1*
X10947D2*
Y17475D1*
X11210Y18132D2*
X10708Y17940D1*
X11210Y17748D1*
X11043Y17820D2*
Y18060D1*
X10708Y18453D2*
X11210D1*
X10708Y18286D2*
Y18621D1*
X12227Y11606D2*
X12180Y11582D1*
X12132Y11534D1*
X12108Y11487D1*
Y11391D1*
X12132Y11343D1*
X12180Y11295D1*
X12227Y11271D1*
X12299Y11247D1*
X12419D1*
X12490Y11271D1*
X12538Y11295D1*
X12586Y11343D1*
X12610Y11391D1*
Y11487D1*
X12586Y11534D1*
X12538Y11582D1*
X12490Y11606D1*
X12610Y12143D2*
X12108Y11952D1*
X12610Y11760D1*
X12443Y11832D2*
Y12072D1*
X12371Y12298D2*
Y12513D1*
X12347Y12585D1*
X12323Y12609D1*
X12275Y12633D1*
X12203D1*
X12156Y12609D1*
X12132Y12585D1*
X12108Y12513D1*
Y12298D1*
X12610D1*
X13755Y7438D2*
X14257D1*
Y7605D1*
X14233Y7677D1*
X14186Y7725D1*
X14137Y7749D1*
X14066Y7773D1*
X13946D1*
X13874Y7749D1*
X13827Y7725D1*
X13779Y7677D1*
X13755Y7605D1*
Y7438D1*
Y7927D2*
X14257D1*
X13755Y8225D2*
X13779Y8177D1*
X13827Y8130D1*
X13874Y8105D1*
X13946Y8082D1*
X14066D1*
X14137Y8105D1*
X14186Y8130D1*
X14233Y8177D1*
X14257Y8225D1*
Y8321D1*
X14233Y8368D1*
X14186Y8417D1*
X14137Y8440D1*
X14066Y8464D1*
X13946D1*
X13874Y8440D1*
X13827Y8417D1*
X13779Y8368D1*
X13755Y8321D1*
Y8225D1*
Y8619D2*
X14257D1*
Y8786D1*
X14233Y8858D1*
X14186Y8906D1*
X14137Y8930D1*
X14066Y8953D1*
X13946D1*
X13874Y8930D1*
X13827Y8906D1*
X13779Y8858D1*
X13755Y8786D1*
Y8619D1*
Y9418D2*
Y9108D1*
X14257D1*
Y9418D1*
X13994Y9108D2*
Y9299D1*
X8708Y12943D2*
X9210D1*
X8780Y13433D2*
X8732Y13385D1*
X8708Y13313D1*
Y13218D1*
X8732Y13146D1*
X8780Y13098D1*
X8827D1*
X8875Y13122D1*
X8899Y13146D1*
X8923Y13193D1*
X8971Y13337D1*
X8995Y13385D1*
X9019Y13409D1*
X9066Y13433D1*
X9138D1*
X9186Y13385D1*
X9210Y13313D1*
Y13218D1*
X9186Y13146D1*
X9138Y13098D1*
X8971Y13587D2*
Y13803D1*
X8947Y13874D1*
X8923Y13898D1*
X8875Y13922D1*
X8803D1*
X8756Y13898D1*
X8732Y13874D1*
X8708Y13803D1*
Y13587D1*
X9210D1*
X8708Y14562D2*
X9210D1*
X8971D2*
X8899Y14634D1*
X8875Y14682D1*
Y14754D1*
X8899Y14802D1*
X8971Y14825D1*
X9210D1*
X9019Y14980D2*
Y15267D1*
X8971D1*
X8923Y15243D1*
X8899Y15219D1*
X8875Y15171D1*
Y15099D1*
X8899Y15052D1*
X8947Y15004D1*
X9019Y14980D1*
X9066D1*
X9138Y15004D1*
X9186Y15052D1*
X9210Y15099D1*
Y15171D1*
X9186Y15219D1*
X9138Y15267D1*
X8875Y15708D2*
X9210D1*
X8947D2*
X8899Y15660D1*
X8875Y15612D1*
Y15541D1*
X8899Y15493D1*
X8947Y15445D1*
X9019Y15421D1*
X9066D1*
X9138Y15445D1*
X9186Y15493D1*
X9210Y15541D1*
Y15612D1*
X9186Y15660D1*
X9138Y15708D1*
X8708Y16149D2*
X9210D1*
X8947D2*
X8899Y16102D1*
X8875Y16054D1*
Y15982D1*
X8899Y15934D1*
X8947Y15886D1*
X9019Y15862D1*
X9066D1*
X9138Y15886D1*
X9186Y15934D1*
X9210Y15982D1*
Y16054D1*
X9186Y16102D1*
X9138Y16149D1*
X9019Y16304D2*
Y16590D1*
X8971D1*
X8923Y16567D1*
X8899Y16543D1*
X8875Y16495D1*
Y16423D1*
X8899Y16375D1*
X8947Y16327D1*
X9019Y16304D1*
X9066D1*
X9138Y16327D1*
X9186Y16375D1*
X9210Y16423D1*
Y16495D1*
X9186Y16543D1*
X9138Y16590D1*
X8875Y16745D2*
X9210D1*
X9019D2*
X8947Y16769D1*
X8899Y16817D1*
X8875Y16865D1*
Y16937D1*
X8319Y8297D2*
Y7795D1*
X8606D1*
X9071Y8297D2*
X8761D1*
Y7795D1*
X9071D1*
X8761Y8058D2*
X8952D1*
X9226Y8297D2*
Y7795D1*
X9393D1*
X9465Y7819D1*
X9513Y7867D1*
X9537Y7915D1*
X9561Y7986D1*
Y8106D1*
X9537Y8178D1*
X9513Y8225D1*
X9465Y8273D1*
X9393Y8297D1*
X9226D1*
X4689Y9816D2*
X4665D1*
X4617Y9840D1*
X4593Y9864D1*
X4569Y9912D1*
Y10007D1*
X4593Y10055D1*
X4617Y10079D1*
X4665Y10103D1*
X4712D1*
X4761Y10079D1*
X4832Y10031D1*
X5071Y9792D1*
Y10127D1*
X4569Y10616D2*
X5071D1*
X4569Y10281D1*
X5071D1*
X4689Y10795D2*
X4665D1*
X4617Y10819D1*
X4593Y10842D1*
X4569Y10891D1*
Y10986D1*
X4593Y11034D1*
X4617Y11057D1*
X4665Y11082D1*
X4712D1*
X4761Y11057D1*
X4832Y11010D1*
X5071Y10771D1*
Y11106D1*
X4689Y11284D2*
X4665D1*
X4617Y11308D1*
X4593Y11332D1*
X4569Y11380D1*
Y11475D1*
X4593Y11523D1*
X4617Y11547D1*
X4665Y11571D1*
X4712D1*
X4761Y11547D1*
X4832Y11499D1*
X5071Y11260D1*
Y11595D1*
X4689Y11774D2*
X4665D1*
X4617Y11797D1*
X4593Y11821D1*
X4569Y11869D1*
Y11965D1*
X4593Y12012D1*
X4617Y12036D1*
X4665Y12060D1*
X4712D1*
X4761Y12036D1*
X4832Y11989D1*
X5071Y11749D1*
Y12084D1*
X4689Y12263D2*
X4665D1*
X4617Y12287D1*
X4593Y12310D1*
X4569Y12358D1*
Y12454D1*
X4593Y12502D1*
X4617Y12525D1*
X4665Y12550D1*
X4712D1*
X4761Y12525D1*
X4832Y12478D1*
X5071Y12239D1*
Y12573D1*
Y13111D2*
X4569Y12919D1*
X5071Y12728D1*
X4904Y12800D2*
Y13039D1*
X7901Y19005D2*
X7854Y18981D1*
X7806Y18933D1*
X7782Y18861D1*
Y18814D1*
X7806Y18742D1*
X7854Y18694D1*
X7901Y18670D1*
X7973D1*
X8021Y18694D1*
X8069Y18742D1*
X8093Y18814D1*
Y18861D1*
X8069Y18933D1*
X8021Y18981D1*
X7973Y19005D1*
X7901D1*
X8247D2*
Y18670D1*
Y18909D2*
X8319Y18981D1*
X8367Y19005D1*
X8439D1*
X8487Y18981D1*
X8511Y18909D1*
Y18670D1*
X8665Y18921D2*
X8941D1*
X9215Y19005D2*
X9168Y18981D1*
X9119Y18933D1*
X9096Y18861D1*
Y18814D1*
X9119Y18742D1*
X9168Y18694D1*
X9215Y18670D1*
X9287D1*
X9335Y18694D1*
X9383Y18742D1*
X9407Y18814D1*
Y18861D1*
X9383Y18933D1*
X9335Y18981D1*
X9287Y19005D1*
X9215D1*
X9752Y19172D2*
X9705D1*
X9657Y19148D1*
X9633Y19077D1*
Y18670D1*
X9561Y19005D2*
X9729D1*
X10098Y19172D2*
X10051D1*
X10002Y19148D1*
X9979Y19077D1*
Y18670D1*
X9907Y19005D2*
X10074D1*
X5701Y9909D2*
X5916D1*
X5988Y9933D1*
X6012Y9957D1*
X6036Y10005D1*
Y10077D1*
X6012Y10124D1*
X5988Y10148D1*
X5916Y10172D1*
X5701D1*
Y9670D1*
X6190Y10172D2*
Y9670D1*
X6344Y9933D2*
X6559D1*
X6631Y9957D1*
X6656Y9981D1*
X6679Y10029D1*
Y10077D1*
X6656Y10124D1*
X6631Y10148D1*
X6559Y10172D1*
X6344D1*
Y9670D1*
X6512Y9933D2*
X6679Y9670D1*
X13875Y11021D2*
X14378D1*
X13947D2*
X13900Y11069D1*
X13875Y11117D1*
Y11189D1*
X13900Y11237D1*
X13947Y11284D1*
X14019Y11309D1*
X14067D1*
X14138Y11284D1*
X14186Y11237D1*
X14210Y11189D1*
Y11117D1*
X14186Y11069D1*
X14138Y11021D1*
X13708Y11535D2*
X14115D1*
X14186Y11559D1*
X14210Y11607D1*
Y11654D1*
X13875Y11463D2*
Y11631D1*
X14019Y11809D2*
Y12096D1*
X13971D1*
X13923Y12072D1*
X13899Y12048D1*
X13875Y12000D1*
Y11928D1*
X13899Y11881D1*
X13947Y11833D1*
X14019Y11809D1*
X14066D1*
X14138Y11833D1*
X14186Y11881D1*
X14210Y11928D1*
Y12000D1*
X14186Y12048D1*
X14138Y12096D1*
X13947Y12513D2*
X13899Y12489D1*
X13875Y12417D1*
Y12346D1*
X13899Y12274D1*
X13947Y12250D1*
X13995Y12274D1*
X14019Y12322D1*
X14043Y12441D1*
X14066Y12489D1*
X14115Y12513D1*
X14138D1*
X14186Y12489D1*
X14210Y12417D1*
Y12346D1*
X14186Y12274D1*
X14138Y12250D1*
X13708Y12739D2*
X14115D1*
X14186Y12763D1*
X14210Y12811D1*
Y12859D1*
X13875Y12667D2*
Y12835D1*
X12504Y7927D2*
X12480Y7975D1*
X12408Y8047D1*
X12910D1*
X12408Y8345D2*
X12432Y8273D1*
X12504Y8225D1*
X12623Y8201D1*
X12695D1*
X12815Y8225D1*
X12886Y8273D1*
X12910Y8345D1*
Y8392D1*
X12886Y8464D1*
X12815Y8512D1*
X12695Y8536D1*
X12623D1*
X12504Y8512D1*
X12432Y8464D1*
X12408Y8392D1*
Y8345D1*
X12504Y8512D2*
X12815Y8225D1*
X12408Y8690D2*
X12910D1*
X12575Y8930D2*
X12815Y8690D1*
X12719Y8786D2*
X12910Y8953D1*
X6780Y14640D2*
X6732Y14592D1*
X6708Y14520D1*
Y14425D1*
X6732Y14353D1*
X6780Y14305D1*
X6827D1*
X6875Y14329D1*
X6899Y14353D1*
X6923Y14400D1*
X6971Y14544D1*
X6995Y14592D1*
X7019Y14616D1*
X7066Y14640D1*
X7138D1*
X7186Y14592D1*
X7210Y14520D1*
Y14425D1*
X7186Y14353D1*
X7138Y14305D1*
X6971Y14794D2*
Y15010D1*
X6947Y15081D1*
X6923Y15105D1*
X6875Y15129D1*
X6803D1*
X6756Y15105D1*
X6732Y15081D1*
X6708Y15010D1*
Y14794D1*
X7210D1*
X6708Y15594D2*
Y15283D1*
X7210D1*
Y15594D1*
X6947Y15283D2*
Y15475D1*
X7210Y16132D2*
X6708Y15940D1*
X7210Y15748D1*
X7043Y15820D2*
Y16060D1*
X6708Y16286D2*
X7210D1*
X6708Y16621D2*
X7043Y16286D1*
X6923Y16405D2*
X7210Y16621D1*
X6708Y17086D2*
Y16775D1*
X7210D1*
Y17086D1*
X6947Y16775D2*
Y16966D1*
Y17240D2*
Y17455D1*
X6923Y17527D1*
X6899Y17551D1*
X6851Y17575D1*
X6803D1*
X6756Y17551D1*
X6732Y17527D1*
X6708Y17455D1*
Y17240D1*
X7210D1*
X6947Y17408D2*
X7210Y17575D1*
X5210Y14580D2*
X4708D1*
X5210Y14389D1*
X4708Y14197D1*
X5210D1*
X4708Y14878D2*
X4732Y14830D1*
X4780Y14782D1*
X4827Y14758D1*
X4899Y14734D1*
X5019D1*
X5090Y14758D1*
X5138Y14782D1*
X5186Y14830D1*
X5210Y14878D1*
Y14974D1*
X5186Y15021D1*
X5138Y15069D1*
X5090Y15093D1*
X5019Y15117D1*
X4899D1*
X4827Y15093D1*
X4780Y15069D1*
X4732Y15021D1*
X4708Y14974D1*
Y14878D1*
Y15439D2*
X5210D1*
X4708Y15271D2*
Y15606D1*
Y15904D2*
X4732Y15856D1*
X4780Y15808D1*
X4827Y15784D1*
X4899Y15760D1*
X5019D1*
X5090Y15784D1*
X5138Y15808D1*
X5186Y15856D1*
X5210Y15904D1*
Y16000D1*
X5186Y16047D1*
X5138Y16095D1*
X5090Y16119D1*
X5019Y16143D1*
X4899D1*
X4827Y16119D1*
X4780Y16095D1*
X4732Y16047D1*
X4708Y16000D1*
Y15904D1*
X4947Y16297D2*
Y16512D1*
X4923Y16584D1*
X4899Y16608D1*
X4851Y16632D1*
X4803D1*
X4756Y16608D1*
X4732Y16584D1*
X4708Y16512D1*
Y16297D1*
X5210D1*
X4947Y16465D2*
X5210Y16632D1*
Y17170D2*
X4708Y16978D1*
X5210Y16787D1*
X5043Y16858D2*
Y17098D1*
X4827Y17683D2*
X4780Y17659D1*
X4732Y17611D1*
X4708Y17563D1*
Y17468D1*
X4732Y17420D1*
X4780Y17372D1*
X4827Y17348D1*
X4899Y17324D1*
X5019D1*
X5090Y17348D1*
X5138Y17372D1*
X5186Y17420D1*
X5210Y17468D1*
Y17563D1*
X5186Y17611D1*
X5138Y17659D1*
X5090Y17683D1*
X6662Y4747D2*
D53*
X6624Y4785D1*
X6566Y4804D1*
X6490D1*
X6432Y4785D1*
X6394Y4747D1*
Y4709D1*
X6413Y4670D1*
X6432Y4651D1*
X6470Y4632D1*
X6585Y4594D1*
X6624Y4575D1*
X6643Y4555D1*
X6662Y4517D1*
Y4460D1*
X6624Y4422D1*
X6566Y4402D1*
X6490D1*
X6432Y4422D1*
X6394Y4460D1*
X6785Y4804D2*
Y4402D1*
Y4594D2*
X6843Y4651D1*
X6881Y4670D1*
X6939D1*
X6977Y4651D1*
X6996Y4594D1*
Y4402D1*
X7215Y4670D2*
X7177Y4651D1*
X7138Y4613D1*
X7119Y4555D1*
Y4517D1*
X7138Y4460D1*
X7177Y4422D1*
X7215Y4402D1*
X7272D1*
X7311Y4422D1*
X7349Y4460D1*
X7368Y4517D1*
Y4555D1*
X7349Y4613D1*
X7311Y4651D1*
X7272Y4670D1*
X7215D1*
X7587D2*
X7549Y4651D1*
X7511Y4613D1*
X7492Y4555D1*
Y4517D1*
X7511Y4460D1*
X7549Y4422D1*
X7587Y4402D1*
X7645D1*
X7683Y4422D1*
X7721Y4460D1*
X7741Y4517D1*
Y4555D1*
X7721Y4613D1*
X7683Y4651D1*
X7645Y4670D1*
X7587D1*
X8540Y4709D2*
X8521Y4747D1*
X8482Y4785D1*
X8444Y4804D1*
X8368D1*
X8329Y4785D1*
X8291Y4747D1*
X8272Y4709D1*
X8253Y4651D1*
Y4555D1*
X8272Y4498D1*
X8291Y4460D1*
X8329Y4422D1*
X8368Y4402D1*
X8444D1*
X8482Y4422D1*
X8521Y4460D1*
X8540Y4498D1*
X8893Y4670D2*
Y4402D1*
Y4613D2*
X8855Y4651D1*
X8816Y4670D1*
X8759D1*
X8721Y4651D1*
X8683Y4613D1*
X8663Y4555D1*
Y4517D1*
X8683Y4460D1*
X8721Y4422D1*
X8759Y4402D1*
X8816D1*
X8855Y4422D1*
X8893Y4460D1*
X9074Y4804D2*
Y4479D1*
X9093Y4422D1*
X9131Y4402D1*
X9169D1*
X9016Y4670D2*
X9150D1*
X9682D2*
X9797Y4402D1*
X9911Y4670D1*
X10054Y4708D2*
Y4727D1*
X10073Y4766D1*
X10092Y4785D1*
X10131Y4804D1*
X10207D1*
X10245Y4785D1*
X10264Y4766D1*
X10284Y4727D1*
Y4689D1*
X10264Y4651D1*
X10226Y4594D1*
X10035Y4402D1*
X10303D1*
M02*
